HIERARCHY
ROOT Hips
{
  OFFSET 0 0 0
  CHANNELS 6 Xposition Yposition Zposition Zrotation Xrotation Yrotation
  JOINT LeftHip
  {
    OFFSET 3.43 7.10543e-015 1.42109e-014
    CHANNELS 3 Zrotation Xrotation Yrotation
    JOINT LeftKnee
    {
      OFFSET -2.63059e-013 -18.47 -1.60089e-013
      CHANNELS 3 Zrotation Xrotation Yrotation
      JOINT LeftAnkle
      {
        OFFSET -5.71295e-013 -17.95 -2.29603e-012
        CHANNELS 3 Zrotation Xrotation Yrotation
        End Site
        {
          OFFSET 0 -3.12 0
        }
      }
    }
  }
  JOINT RightHip
  {
    OFFSET -3.43 -7.10543e-015 4.26326e-014
    CHANNELS 3 Zrotation Xrotation Yrotation
    JOINT RightKnee
    {
      OFFSET -2.56889e-013 -18.47 -3.42374e-013
      CHANNELS 3 Zrotation Xrotation Yrotation
      JOINT RightAnkle
      {
        OFFSET -1.14182e-012 -17.95 -1.48304e-012
        CHANNELS 3 Zrotation Xrotation Yrotation
        End Site
        {
          OFFSET 0 -3.12 0
        }
      }
    }
  }
  JOINT Chest
  {
    OFFSET -1.66489e-012 4.57 -4.7603e-012
    CHANNELS 3 Zrotation Xrotation Yrotation
    JOINT Chest2
    {
      OFFSET 1.42109e-014 6.57 -1.20743e-013
      CHANNELS 3 Zrotation Xrotation Yrotation
      JOINT LeftCollar
      {
        OFFSET 1.06 4.19 1.76
        CHANNELS 3 Zrotation Xrotation Yrotation
        JOINT LeftShoulder
        {
          OFFSET 5.81 -2.13163e-014 5.29234e-013
          CHANNELS 3 Zrotation Xrotation Yrotation
          JOINT LeftElbow
          {
            OFFSET 9.75654e-014 -12.08 -6.4833e-013
            CHANNELS 3 Zrotation Xrotation Yrotation
            JOINT LeftWrist
            {
              OFFSET -8.05939e-012 -9.82 -1.32772e-011
              CHANNELS 3 Zrotation Xrotation Yrotation
              End Site
              {
                OFFSET 0 -7.37 0
              }
            }
          }
        }
      }
      JOINT RightCollar
      {
        OFFSET -1.06 4.19 1.76
        CHANNELS 3 Zrotation Xrotation Yrotation
        JOINT RightShoulder
        {
          OFFSET -6.06 7.41254e-013 7.65649e-013
          CHANNELS 3 Zrotation Xrotation Yrotation
          JOINT RightElbow
          {
            OFFSET 4.85801e-014 -11.08 -7.92776e-013
            CHANNELS 3 Zrotation Xrotation Yrotation
            JOINT RightWrist
            {
              OFFSET 7.39589e-012 -9.82 -1.17398e-011
              CHANNELS 3 Zrotation Xrotation Yrotation
              End Site
              {
                OFFSET 0 -7.14001 0
              }
            }
          }
        }
      }
      JOINT Neck
      {
        OFFSET -7.10543e-015 4.05 -5.25333e-013
        CHANNELS 3 Zrotation Xrotation Yrotation
        JOINT Head
        {
          OFFSET 2.19778e-013 5.19 1.14394e-013
          CHANNELS 3 Zrotation Xrotation Yrotation
          End Site
          {
            OFFSET 0 4.14001 0
          }
        }
      }
    }
  }
}
MOTION
Frames:	15
Frame Time:	0.0333333
-2.95231 39.0713 -6.2042 -13.3737 -7.10491 -79.3066 1.23092 3.1318 -4.5088 0.549378 16.48 -16.9514 -5.05417 -7.28345 -0.321884 -0.762493 6.15179 0.238653 1.18545 26.475 -45.6648 9.83158 -15.9872 1.38395 2.00813 10.0204 7.06328 2.04691 13.4402 9.31735 1.08123 -0.160918 4.70105 17.1611 -13.7439 -5.73321 -15.6594 -14.6224 -31.8117 4.4419 12.4958 -0.486543 -11.6646 0.523106 -4.07758 -16.3164 -10.8179 2.63291 13.6289 -18.2481 22.9904 -2.40315 7.3333 0.154022 -11.1541 7.94529 40.7261 -1.32199 -12.7572 37.7764 
-2.95267 39.0723 -6.21162 -13.1983 -7.39486 -78.6184 1.03355 3.07651 -4.69127 0.571918 16.194 -17.4748 -5.06977 -7.08232 -0.313941 -0.875502 6.08996 0.117654 1.21536 26.5179 -46.2696 9.98325 -15.9746 1.40428 2.05321 9.99598 7.26236 2.06803 13.4112 9.58459 1.03073 -0.16613 4.79142 17.3734 -13.4365 -5.51803 -15.5668 -14.3865 -31.8571 4.49199 12.4796 -0.491391 -11.729 0.524887 -4.06878 -16.3083 -10.9599 2.67353 13.6548 -18.3817 23.1189 -2.45079 7.27673 0.155862 -11.2587 7.91139 40.7812 -1.32167 -12.8236 37.785 
-2.95708 39.0735 -6.22311 -13.0262 -7.655 -78.0009 0.861178 3.03983 -4.8547 0.597402 15.9035 -17.95 -5.10249 -6.89657 -0.307661 -0.971248 6.03164 0.012582 1.24429 26.5473 -46.8227 10.1125 -15.9677 1.42193 2.08585 9.97615 7.44695 2.08194 13.3879 9.8309 0.986494 -0.171175 4.88235 17.5867 -13.1603 -5.3066 -15.464 -14.0644 -31.8984 4.53164 12.3993 -0.492519 -11.7815 0.526562 -4.06615 -16.3097 -11.1113 2.69927 13.666 -18.5928 23.1963 -2.4796 7.22264 0.156519 -11.3115 7.86101 40.79 -1.34291 -12.8628 37.7649 
-2.96418 39.0747 -6.23715 -12.8562 -7.89583 -77.4294 0.707911 3.01445 -5.00111 0.617869 15.6123 -18.3954 -5.14237 -6.72046 -0.302133 -1.05395 5.97601 -0.0789153 1.26763 26.5705 -47.3349 10.2289 -15.9648 1.43811 2.11014 9.9591 7.62236 2.09166 13.368 10.0636 0.944613 -0.176149 4.97219 17.7816 -12.9582 -5.1224 -15.3604 -13.6342 -31.9379 4.56367 12.2653 -0.490603 -11.8253 0.528187 -4.06653 -16.3263 -11.2268 2.69261 13.6507 -18.8884 23.211 -2.48695 7.1784 0.156019 -11.3338 7.80477 40.7704 -1.37888 -12.8896 37.7271 
-2.97756 39.0765 -6.25242 -12.7002 -8.10969 -76.9538 0.577285 3.02207 -5.12278 0.627834 15.317 -18.766 -5.18681 -6.56188 -0.297541 -1.12406 5.93639 -0.149892 1.27388 26.5804 -47.757 10.3273 -15.9679 1.45231 2.11924 9.94881 7.77057 2.09201 13.3564 10.2583 0.910246 -0.180623 5.05548 17.9524 -12.7327 -4.92609 -15.2373 -13.2087 -31.9394 4.58391 12.1092 -0.486462 -11.855 0.529768 -4.07525 -16.3573 -11.3952 2.69548 13.6414 -19.1597 23.2142 -2.48474 7.13967 0.155038 -11.3331 7.74214 40.7403 -1.39759 -12.9045 37.686 
-2.9997 39.0794 -6.2676 -12.5661 -8.2931 -76.6167 0.46938 3.08163 -5.21474 0.621371 15.009 -19.0207 -5.23318 -6.42339 -0.293855 -1.185 5.9209 -0.196248 1.25099 26.573 -48.0467 10.405 -15.9779 1.46423 2.10774 9.94806 7.87862 2.07733 13.3566 10.3978 0.887891 -0.184263 5.12921 18.0948 -12.4055 -4.6906 -15.0853 -12.8823 -31.8739 4.58909 11.9573 -0.480859 -11.87 0.531645 -4.09784 -16.3967 -11.6885 2.74485 13.6669 -19.3134 23.2518 -2.48548 7.10268 0.154278 -11.3076 7.66599 40.7085 -1.38206 -12.8932 37.6502 
-3.02617 39.0828 -6.2825 -12.4426 -8.46402 -76.3508 0.357945 3.11562 -5.30108 0.615219 14.7951 -19.2116 -5.26848 -6.30696 -0.290467 -1.25641 5.9154 -0.243448 1.22882 26.5617 -48.2547 10.4665 -16.0004 1.47503 2.08941 9.95042 7.96656 2.0541 13.3604 10.5111 0.868628 -0.187498 5.1948 18.1928 -12.0951 -4.47356 -14.9338 -12.5593 -31.7749 4.59398 11.8093 -0.475372 -11.8787 0.533578 -4.12449 -16.4453 -11.985 2.79438 13.6947 -19.4246 23.2865 -2.48492 7.07967 0.153743 -11.2773 7.593 40.6791 -1.3549 -12.8737 37.619 
-3.05607 39.0868 -6.29795 -12.3275 -8.62678 -76.1487 0.231478 3.03333 -5.38467 0.611751 14.8403 -19.3579 -5.26771 -6.2273 -0.286749 -1.34117 5.91641 -0.294831 1.20986 26.5474 -48.391 10.512 -16.035 1.48472 2.06503 9.95489 8.03698 2.02236 13.3667 10.6019 0.85188 -0.190321 5.25165 18.2436 -11.8126 -4.28294 -14.7893 -12.251 -31.6486 4.60342 11.6757 -0.470922 -11.8824 0.535383 -4.15225 -16.499 -12.2713 2.84346 13.7243 -19.4847 23.3244 -2.48793 7.07132 0.153747 -11.2471 7.52761 40.6527 -1.32164 -12.851 37.5921 
-3.08848 39.0913 -6.31543 -12.2176 -8.78508 -76.0022 0.101835 2.96161 -5.4669 0.611737 14.8913 -19.4578 -5.27357 -6.15116 -0.283552 -1.43899 5.91947 -0.351434 1.19479 26.5308 -48.4693 10.5416 -16.0806 1.49322 2.03461 9.96084 8.09257 1.98194 13.3747 10.6738 0.837668 -0.192723 5.29967 18.2484 -11.5692 -4.12522 -14.6583 -11.97 -31.5047 4.62043 11.5628 -0.468061 -11.8822 0.536949 -4.17839 -16.5523 -12.536 2.89147 13.7548 -19.4913 23.3683 -2.49779 7.07619 0.154463 -11.2201 7.47145 40.6278 -1.28817 -12.8283 37.5675 
-3.12252 39.0964 -6.33693 -12.1092 -8.94176 -75.9017 -0.0293581 2.89374 -5.54796 0.616498 14.9483 -19.5271 -5.28988 -6.07363 -0.280838 -1.54663 5.91962 -0.41244 1.18332 26.5127 -48.5066 10.5558 -16.1358 1.50044 1.99798 9.96796 8.1359 1.93265 13.384 10.7302 0.826325 -0.194693 5.33921 18.2123 -11.3759 -4.00517 -14.5462 -11.7309 -31.3553 4.64607 11.4735 -0.467004 -11.8791 0.538173 -4.2006 -16.5994 -12.7698 2.93769 13.7842 -19.4474 23.4185 -2.51624 7.09072 0.155925 -11.1986 7.42343 40.6022 -1.25899 -12.8076 37.5426 
-3.15739 39.1018 -6.36476 -11.9988 -9.09884 -75.8359 -0.158882 2.82272 -5.62709 0.626744 15.0107 -19.5803 -5.32055 -5.99073 -0.278606 -1.65835 5.91169 -0.475542 1.17455 26.4944 -48.5216 10.5555 -16.1992 1.50638 1.95521 9.97616 8.16912 1.87432 13.3944 10.7739 0.818294 -0.196227 5.37089 18.1151 -11.298 -3.96042 -14.4751 -11.6121 -31.2487 4.69039 11.4321 -0.469751 -11.8742 0.53899 -4.21719 -16.6453 -12.9099 2.9755 13.8216 -19.3474 23.4705 -2.5412 7.10454 0.157779 -11.1849 7.38016 40.5738 -1.23621 -12.7895 37.5145 
-3.1923 39.1072 -6.40139 -11.8827 -9.25736 -75.7919 -0.282131 2.74152 -5.70228 0.641686 15.0778 -19.6285 -5.36866 -5.89915 -0.276824 -1.76622 5.89062 -0.53703 1.16692 26.4778 -48.5328 10.5419 -16.2701 1.51109 1.90682 9.98529 8.19397 1.8072 13.406 10.8074 0.813739 -0.197335 5.39532 17.9987 -11.2835 -3.95549 -14.433 -11.6068 -31.1669 4.73761 11.4201 -0.473985 -11.8686 0.539375 -4.22708 -16.6776 -13.0095 3.01494 13.8611 -19.2037 23.5308 -2.57105 7.11223 0.159806 -11.1807 7.33772 40.5415 -1.22071 -12.7735 37.4814 
-3.2265 39.1122 -6.44934 -11.7577 -9.41754 -75.7569 -0.393217 2.64365 -5.76987 0.658124 15.1482 -19.6775 -5.4358 -5.79584 -0.275374 -1.86075 5.85192 -0.591858 1.15789 26.4646 -48.5569 10.5159 -16.3476 1.51462 1.85375 9.99523 8.21176 1.73206 13.4186 10.8322 0.812397 -0.198046 5.41298 17.878 -11.3093 -3.97385 -14.4155 -11.7744 -31.1265 4.78452 11.4428 -0.479641 -11.8632 0.539338 -4.22979 -16.7165 -13.0623 3.05909 13.9236 -19.0626 23.5992 -2.59277 7.10577 0.16101 -11.1878 7.29307 40.5061 -1.21252 -12.7594 37.4433 
-3.25925 39.1163 -6.51108 -11.6212 -9.57833 -75.721 -0.484553 2.52348 -5.82371 0.669909 15.2206 -19.7281 -5.52173 -5.67814 -0.274115 -1.93133 5.79174 -0.633585 1.14371 26.4561 -48.605 10.4777 -16.4313 1.51692 1.79718 10.0057 8.22356 1.65047 13.4319 10.8498 0.813412 -0.19841 5.42424 17.7834 -11.36 -3.99891 -14.4122 -11.9581 -31.0708 4.81996 11.4592 -0.483894 -11.8594 0.538931 -4.22534 -16.7248 -13.1231 3.10121 13.9642 -18.9282 23.6654 -2.61846 7.10287 0.16254 -11.2082 7.24498 40.471 -1.21128 -12.7473 37.4027 
-3.28893 39.1176 -6.5991 -11.4627 -9.73287 -75.6649 -0.516736 2.35762 -5.83289 0.652296 15.2959 -19.8136 -5.6284 -5.54294 -0.272919 -1.93415 5.68952 -0.636192 1.10805 26.4609 -48.719 10.4259 -16.5219 1.51783 1.74186 10.0157 8.22658 1.56355 13.4449 10.8575 0.814608 -0.198353 5.42548 17.7361 -11.4845 -4.04639 -14.4374 -12.1429 -30.9953 4.83723 11.4612 -0.485715 -11.8612 0.538121 -4.21075 -16.6796 -13.1781 3.13053 13.9592 -18.8206 23.7166 -2.64925 7.10796 0.16457 -11.2506 7.19199 40.4455 -1.22404 -12.7352 37.3669 
